<?xml version="1.0" encoding="utf-8"?>
<svg xmlns="http://www.w3.org/2000/svg" viewBox="0 0 128 128" fill="#fff">
  <path d="M 64 6 C 48.5 6 33.9 12 23 23 C 11.7 34.3 6 49.1 6 64 C 6 78.9 11.7 93.7 23 105 C 34 116 48.5 122 64 122 C 79.5 122 94.1 116 105 105 C 127.6 82.4 127.6 45.6 105 23 C 94.1 12 79.5 6 64 6 z M 64 12 C 77.9 12 90.900781 17.399219 100.80078 27.199219 C 110.90078 37.399219 116 50.7 116 64 C 116 77.3 110.90078 90.600781 100.80078 100.80078 C 90.900781 110.60078 77.9 116 64 116 C 50.1 116 37.099219 110.60078 27.199219 100.80078 C 6.9992187 80.500781 6.9992188 47.499219 27.199219 27.199219 C 37.099219 17.399219 50.1 12 64 12 z M 64 43 C 62.3 43 61 44.3 61 46 L 61 76.800781 L 51.099609 66.900391 C 49.899609 65.700391 48.000391 65.700391 46.900391 66.900391 C 46.300391 67.500391 46 68.2 46 69 C 46 69.8 46.300391 70.499609 46.900391 71.099609 L 61.900391 86.099609 C 63.100391 87.299609 64.999609 87.299609 66.099609 86.099609 L 81.099609 71.099609 C 82.299609 69.899609 82.299609 68.000391 81.099609 66.900391 C 79.899609 65.700391 78.100391 65.700391 76.900391 66.900391 L 67 76.800781 L 67 46 C 67 44.3 65.7 43 64 43 z" fill="#fff" />
</svg>
