<?xml version="1.0" encoding="utf-8"?>
<svg xmlns="http://www.w3.org/2000/svg" viewBox="0 0 24 24" fill="#ffffe6"><path d="M 12.152344 2.0019531 C 9.2599673 1.9586724 6.6486603 3.1563834 4.796875 5.0898438 L 2.8535156 3.1464844 C 2.6585156 2.9514844 2.3414844 2.9514844 2.1464844 3.1464844 C 2.0484844 3.2434844 2 3.372 2 3.5 L 2 8 A 1 1 0 0 0 3 9 L 7.5 9 C 7.628 9 7.7555156 8.9505156 7.8535156 8.8535156 C 8.0485156 8.6585156 8.0485156 8.3414844 7.8535156 8.1464844 L 6.2167969 6.5097656 C 8.0280636 4.6011789 10.751876 3.5690652 13.691406 4.1757812 C 16.766406 4.8107812 19.231844 7.2998594 19.839844 10.380859 C 20.849844 15.498859 16.941 20 12 20 C 7.881 20 4.479875 16.870234 4.046875 12.865234 C 3.992875 12.368234 3.5625 12 3.0625 12 C 2.4625 12 1.9955 12.525094 2.0625 13.121094 C 2.6215 18.109094 6.866 22 12 22 C 18.136 22 22.999266 16.443656 21.822266 10.097656 C 21.077266 6.0746562 17.817109 2.86025 13.787109 2.15625 C 13.234734 2.059875 12.688797 2.0099805 12.152344 2.0019531 z M 12 6 C 11.448 6 11 6.448 11 7 L 11 12 C 11 12.265 11.104969 12.520031 11.292969 12.707031 L 13.585938 15 C 13.975938 15.39 14.61 15.39 15 15 C 15.39 14.61 15.39 13.975938 15 13.585938 L 13 11.585938 L 13 7 C 13 6.448 12.552 6 12 6 z" fill="#ffffe6"/></svg>
