<?xml version="1.0" encoding="utf-8"?>
<svg xmlns="http://www.w3.org/2000/svg" viewBox="0 0 80 80">
  <path fill="#feb705" d="M40 64.573L15.67 77.093 20.454 50.369 1.068 31.365 27.918 27.387 40 3.08 52.082 27.387 78.932 31.366 59.549 50.372 64.33 77.093z" />
  <path fill="#ba9b48" d="M40,4.204l11.518,23.172l0.232,0.468l0.516,0.077l25.597,3.793L59.388,49.83l-0.377,0.37l0.093,0.52 l4.556,25.466L40.458,64.247L40,64.011l-0.458,0.235L16.341,76.185l4.558-25.468l0.093-0.52l-0.377-0.37L2.137,31.713l25.596-3.793 l0.516-0.077l0.232-0.468L40,4.204 M40,1.957L27.587,26.931L0,31.019l19.915,19.523L15,78l25-12.864L65,78l-4.912-27.456L80,31.019 l-27.587-4.088L40,1.957L40,1.957z" />
  <path fill="#fff" d="M59.015 50.195L59.388 49.83 77.864 31.713 52.267 27.92 51.75 27.843 51.518 27.376 40 4.204 40 64.008 40.463 64.249 63.68 76.183 59.102 50.71z" />
</svg>