<?xml version="1.0" encoding="utf-8"?>
<svg xmlns="http://www.w3.org/2000/svg" viewBox="0 0 64 64" fill="#c7ccd1">
  <path d="M 29 4 C 13.007813 4 0 17.007813 0 33 C 0 48.992188 13.007813 62 29 62 C 44.992188 62 58 48.992188 58 33 C 58 27.839844 56.621094 22.808594 54.03125 18.382813 L 60.707031 11.707031 C 61.097656 11.316406 61.097656 10.683594 60.707031 10.292969 L 56.707031 6.292969 C 56.316406 5.902344 55.683594 5.902344 55.292969 6.292969 L 49.292969 12.292969 C 43.84375 6.941406 36.679688 4 29 4 Z M 29 6 C 36.144531 6 42.808594 8.734375 47.878906 13.707031 L 45.050781 16.535156 C 44.449219 15.949219 43.820313 15.394531 43.171875 14.878906 C 42.734375 14.539063 42.105469 14.617188 41.765625 15.050781 C 41.425781 15.484375 41.5 16.113281 41.9375 16.453125 C 42.523438 16.914063 43.09375 17.421875 43.636719 17.949219 L 29 32.585938 L 18.707031 22.292969 C 18.316406 21.902344 17.683594 21.902344 17.292969 22.292969 L 13.292969 26.292969 C 12.902344 26.683594 12.902344 27.316406 13.292969 27.707031 L 28.292969 42.707031 C 28.488281 42.902344 28.742188 43 29 43 C 29.257813 43 29.511719 42.902344 29.707031 42.707031 L 48.109375 24.308594 C 48.199219 24.5 48.28125 24.695313 48.363281 24.890625 C 48.519531 25.265625 48.667969 25.644531 48.800781 26.027344 C 48.84375 26.140625 48.882813 26.253906 48.921875 26.371094 C 50.640625 31.589844 50.21875 37.308594 47.847656 42.203125 C 47.769531 42.367188 47.683594 42.527344 47.601563 42.6875 C 47.410156 43.058594 47.214844 43.429688 47 43.789063 C 46.867188 44.011719 46.722656 44.21875 46.582031 44.4375 C 46.28125 44.902344 45.960938 45.359375 45.621094 45.804688 C 45.378906 46.113281 45.144531 46.425781 44.890625 46.71875 C 44.71875 46.917969 44.539063 47.101563 44.359375 47.292969 C 38.402344 53.6875 28.8125 55.933594 20.40625 52.160156 C 17.886719 51.03125 15.710938 49.457031 13.90625 47.578125 C 13.667969 47.335938 13.449219 47.085938 13.226563 46.832031 C 12.972656 46.542969 12.722656 46.253906 12.488281 45.953125 C 12.34375 45.769531 12.207031 45.578125 12.066406 45.390625 C 11.78125 44.996094 11.496094 44.597656 11.238281 44.1875 C 11.175781 44.089844 11.117188 43.984375 11.058594 43.882813 C 10.753906 43.378906 10.464844 42.867188 10.203125 42.34375 C 10.191406 42.316406 10.179688 42.292969 10.167969 42.265625 C 9.585938 41.085938 9.117188 39.851563 8.765625 38.585938 C 8.753906 38.546875 8.746094 38.503906 8.734375 38.460938 C 8.578125 37.875 8.445313 37.285156 8.335938 36.6875 C 8.308594 36.535156 8.292969 36.375 8.265625 36.21875 C 8.191406 35.734375 8.125 35.25 8.085938 34.761719 C 8.058594 34.46875 8.054688 34.175781 8.039063 33.878906 C 8.023438 33.507813 8.003906 33.136719 8.007813 32.765625 C 8.015625 32.414063 8.039063 32.070313 8.0625 31.722656 C 8.082031 31.378906 8.097656 31.035156 8.132813 30.691406 C 8.167969 30.394531 8.21875 30.101563 8.265625 29.808594 C 8.324219 29.40625 8.382813 29 8.46875 28.597656 C 8.515625 28.386719 8.578125 28.179688 8.628906 27.96875 C 8.746094 27.488281 8.871094 27.007813 9.023438 26.53125 C 9.074219 26.382813 9.128906 26.242188 9.179688 26.097656 C 9.363281 25.574219 9.558594 25.054688 9.789063 24.535156 C 9.867188 24.355469 9.957031 24.175781 10.042969 23.996094 C 10.222656 23.617188 10.402344 23.242188 10.597656 22.878906 C 10.71875 22.660156 10.855469 22.449219 10.984375 22.234375 C 11.253906 21.789063 11.53125 21.355469 11.828125 20.9375 C 12.089844 20.5625 12.359375 20.1875 12.644531 19.828125 C 12.785156 19.65625 12.9375 19.496094 13.078125 19.328125 C 13.359375 19.003906 13.644531 18.683594 13.949219 18.375 C 14.203125 18.113281 14.460938 17.855469 14.726563 17.609375 C 14.800781 17.539063 14.875 17.464844 14.953125 17.394531 C 15.332031 17.050781 15.726563 16.722656 16.128906 16.410156 C 16.214844 16.34375 16.304688 16.28125 16.390625 16.21875 C 16.707031 15.980469 17.03125 15.75 17.359375 15.53125 C 17.5 15.4375 17.644531 15.34375 17.789063 15.253906 C 18.089844 15.0625 18.398438 14.882813 18.707031 14.707031 C 18.847656 14.628906 18.984375 14.546875 19.125 14.472656 C 19.515625 14.261719 19.917969 14.070313 20.324219 13.886719 C 20.558594 13.777344 20.800781 13.679688 21.039063 13.582031 C 21.238281 13.5 21.4375 13.421875 21.640625 13.34375 C 21.914063 13.242188 22.1875 13.144531 22.464844 13.050781 C 22.589844 13.011719 22.71875 12.972656 22.84375 12.9375 C 23.449219 12.75 24.0625 12.589844 24.679688 12.460938 C 24.777344 12.441406 24.878906 12.414063 24.980469 12.394531 C 25.308594 12.332031 25.640625 12.277344 25.976563 12.230469 C 26.109375 12.210938 26.238281 12.191406 26.371094 12.175781 C 27.386719 12.046875 28.410156 11.992188 29.441406 12.015625 C 29.671875 12.019531 29.902344 12.023438 30.128906 12.035156 C 30.386719 12.050781 30.640625 12.070313 30.894531 12.09375 C 31.257813 12.125 31.625 12.167969 31.988281 12.21875 C 32.105469 12.238281 32.222656 12.246094 32.335938 12.265625 C 32.886719 12.359375 33.394531 11.984375 33.480469 11.4375 C 33.570313 10.890625 33.199219 10.375 32.652344 10.285156 C 32.527344 10.265625 32.402344 10.261719 32.277344 10.242188 C 31.875 10.183594 31.472656 10.136719 31.066406 10.097656 C 30.796875 10.074219 30.527344 10.058594 30.253906 10.046875 C 29.988281 10.03125 29.71875 10.023438 29.453125 10.015625 C 29.152344 10.011719 28.855469 10.003906 28.558594 10.011719 C 27.761719 10.027344 26.972656 10.089844 26.1875 10.1875 C 26.007813 10.210938 25.824219 10.234375 25.644531 10.261719 C 25.304688 10.308594 24.96875 10.363281 24.636719 10.429688 C 24.460938 10.460938 24.292969 10.503906 24.121094 10.542969 C 23.558594 10.664063 23.003906 10.808594 22.453125 10.96875 C 22.234375 11.035156 22.019531 11.097656 21.800781 11.167969 C 21.53125 11.257813 21.265625 11.355469 21 11.453125 C 20.730469 11.550781 20.46875 11.65625 20.207031 11.765625 C 19.984375 11.859375 19.757813 11.949219 19.535156 12.050781 C 19.070313 12.261719 18.609375 12.484375 18.15625 12.722656 C 18.046875 12.785156 17.9375 12.851563 17.828125 12.910156 C 17.441406 13.125 17.058594 13.351563 16.6875 13.589844 C 16.554688 13.671875 16.421875 13.757813 16.289063 13.847656 C 15.898438 14.105469 15.511719 14.375 15.136719 14.660156 C 15.066406 14.714844 14.992188 14.765625 14.921875 14.816406 C 14.472656 15.167969 14.03125 15.535156 13.605469 15.921875 C 13.535156 15.984375 13.46875 16.050781 13.398438 16.113281 C 13.175781 16.320313 12.949219 16.523438 12.734375 16.738281 C 12.65625 16.816406 12.585938 16.90625 12.507813 16.988281 C 12.1875 17.316406 11.878906 17.664063 11.578125 18.015625 C 11.414063 18.203125 11.246094 18.386719 11.089844 18.582031 C 10.78125 18.964844 10.488281 19.367188 10.203125 19.769531 C 9.871094 20.242188 9.566406 20.722656 9.269531 21.214844 C 9.128906 21.449219 8.980469 21.679688 8.847656 21.921875 C 8.628906 22.316406 8.4375 22.722656 8.242188 23.128906 C 8.167969 23.285156 8.082031 23.433594 8.011719 23.59375 C 7.980469 23.664063 7.953125 23.742188 7.921875 23.8125 C 7.816406 24.054688 7.710938 24.296875 7.613281 24.542969 C 7.425781 25.019531 7.253906 25.5 7.097656 25.984375 C 7.03125 26.195313 6.964844 26.40625 6.90625 26.621094 C 6.746094 27.167969 6.609375 27.714844 6.492188 28.265625 C 6.464844 28.414063 6.433594 28.5625 6.40625 28.714844 C 6.285156 29.335938 6.195313 29.957031 6.132813 30.578125 C 6.121094 30.675781 6.113281 30.777344 6.101563 30.875 C 6.039063 31.539063 6.007813 32.199219 6.007813 32.859375 C 6.007813 32.90625 6 32.949219 6 33 C 6 33.058594 6.007813 33.113281 6.007813 33.171875 C 6.011719 33.789063 6.042969 34.40625 6.097656 35.019531 C 6.113281 35.207031 6.132813 35.394531 6.15625 35.578125 C 6.210938 36.089844 6.285156 36.59375 6.378906 37.09375 C 6.429688 37.386719 6.488281 37.675781 6.554688 37.960938 C 6.640625 38.355469 6.738281 38.746094 6.84375 39.136719 C 7.207031 40.445313 7.6875 41.714844 8.273438 42.9375 C 8.324219 43.042969 8.371094 43.144531 8.421875 43.25 C 8.613281 43.632813 8.8125 44.011719 9.027344 44.382813 C 9.210938 44.703125 9.398438 45.015625 9.59375 45.328125 C 9.742188 45.554688 9.886719 45.785156 10.039063 46.007813 C 10.351563 46.464844 10.6875 46.910156 11.03125 47.347656 C 11.125 47.460938 11.214844 47.578125 11.3125 47.691406 C 11.738281 48.207031 12.1875 48.703125 12.660156 49.183594 C 12.6875 49.210938 12.710938 49.238281 12.734375 49.265625 C 12.742188 49.269531 12.746094 49.269531 12.75 49.277344 C 14.671875 51.199219 16.964844 52.8125 19.589844 53.988281 C 22.636719 55.355469 25.824219 56 28.964844 56 C 35.039063 56 40.929688 53.578125 45.253906 49.269531 C 45.257813 49.265625 45.257813 49.265625 45.261719 49.265625 C 45.316406 49.210938 45.363281 49.152344 45.417969 49.097656 C 45.78125 48.726563 46.132813 48.34375 46.472656 47.949219 C 46.550781 47.859375 46.621094 47.765625 46.695313 47.671875 C 47.011719 47.289063 47.320313 46.898438 47.613281 46.492188 C 47.667969 46.421875 47.714844 46.347656 47.765625 46.273438 C 48.078125 45.832031 48.375 45.378906 48.65625 44.914063 L 48.707031 44.828125 C 49.171875 44.054688 49.605469 43.253906 49.984375 42.410156 C 52.371094 37.089844 52.632813 31.164063 50.808594 25.722656 C 50.769531 25.609375 50.730469 25.492188 50.691406 25.378906 C 50.539063 24.941406 50.371094 24.507813 50.191406 24.078125 C 50.113281 23.894531 50.03125 23.710938 49.949219 23.527344 C 49.839844 23.285156 49.726563 23.042969 49.609375 22.804688 L 52.566406 19.847656 C 54.808594 23.855469 56 28.371094 56 33 C 56 47.886719 43.886719 60 29 60 C 14.113281 60 2 47.886719 2 33 C 2 18.113281 14.113281 6 29 6 Z M 56 8.414063 L 58.585938 11 L 29 40.585938 L 15.414063 27 L 18 24.414063 L 28.292969 34.707031 C 28.683594 35.097656 29.316406 35.097656 29.707031 34.707031 L 45.722656 18.691406 C 45.726563 18.6875 45.730469 18.6875 45.734375 18.683594 C 45.738281 18.679688 45.742188 18.675781 45.746094 18.671875 Z M 36.660156 11.386719 C 36.269531 11.402344 35.910156 11.648438 35.765625 12.035156 C 35.570313 12.554688 35.832031 13.128906 36.351563 13.324219 C 37.0625 13.589844 37.769531 13.898438 38.449219 14.238281 C 38.59375 14.3125 38.75 14.347656 38.902344 14.347656 C 39.265625 14.347656 39.617188 14.148438 39.796875 13.796875 C 40.042969 13.304688 39.84375 12.703125 39.351563 12.453125 C 38.605469 12.078125 37.832031 11.742188 37.050781 11.449219 C 36.925781 11.402344 36.789063 11.382813 36.660156 11.386719 Z M 29 16 C 28.449219 16 28 16.449219 28 17 L 28 19 C 28 19.550781 28.449219 20 29 20 C 29.550781 20 30 19.550781 30 19 L 30 17 C 30 16.449219 29.550781 16 29 16 Z M 13 32 C 12.449219 32 12 32.449219 12 33 C 12 33.550781 12.449219 34 13 34 L 15 34 C 15.550781 34 16 33.550781 16 33 C 16 32.449219 15.550781 32 15 32 Z M 43 32 C 42.449219 32 42 32.449219 42 33 C 42 33.550781 42.449219 34 43 34 L 45 34 C 45.550781 34 46 33.550781 46 33 C 46 32.449219 45.550781 32 45 32 Z M 16.191406 37.695313 C 16.0625 37.699219 15.929688 37.726563 15.804688 37.78125 L 13.976563 38.59375 C 13.472656 38.820313 13.246094 39.410156 13.46875 39.914063 C 13.636719 40.285156 14 40.507813 14.386719 40.507813 C 14.519531 40.507813 14.65625 40.480469 14.789063 40.421875 L 16.617188 39.609375 C 17.121094 39.382813 17.347656 38.792969 17.125 38.285156 C 16.953125 37.910156 16.582031 37.6875 16.191406 37.695313 Z M 19.257813 42.074219 C 19 42.078125 18.75 42.179688 18.558594 42.375 L 17.167969 43.8125 C 16.78125 44.210938 16.792969 44.84375 17.1875 45.230469 C 17.382813 45.417969 17.632813 45.511719 17.886719 45.511719 C 18.148438 45.511719 18.40625 45.40625 18.605469 45.203125 L 19.996094 43.765625 C 20.378906 43.371094 20.367188 42.738281 19.96875 42.355469 C 19.773438 42.160156 19.515625 42.066406 19.257813 42.074219 Z M 23.738281 44.980469 C 23.347656 44.988281 22.984375 45.222656 22.828125 45.605469 L 22.078125 47.460938 C 21.871094 47.972656 22.121094 48.554688 22.632813 48.761719 C 22.753906 48.8125 22.882813 48.835938 23.003906 48.835938 C 23.402344 48.835938 23.777344 48.597656 23.933594 48.207031 L 24.683594 46.355469 C 24.890625 45.84375 24.644531 45.257813 24.128906 45.050781 C 24.003906 45 23.867188 44.976563 23.738281 44.980469 Z M 29 46 C 28.449219 46 28 46.449219 28 47 L 28 49 C 28 49.550781 28.449219 50 29 50 C 29.550781 50 30 49.550781 30 49 L 30 47 C 30 46.449219 29.550781 46 29 46 Z" fill="#c7ccd1" />
</svg>
