<?xml version="1.0" encoding="utf-8"?>
<svg xmlns="http://www.w3.org/2000/svg" viewBox="0 0 24 24" fill="#c7ccd1">
  <path d="M 8.984375 2.9863281 A 1.0001 1.0001 0 0 0 8.8398438 3 L 3 3 A 1.0001 1.0001 0 0 0 2 4 L 2 11.832031 A 1.0001 1.0001 0 0 0 2 12.158203 L 2 20 A 1.0001 1.0001 0 0 0 3 21 L 8.8320312 21 A 1.0001 1.0001 0 0 0 9.1582031 21 L 14.832031 21 A 1.0001 1.0001 0 0 0 15.158203 21 L 21 21 A 1.0001 1.0001 0 0 0 22 20 L 22 12.167969 A 1.0001 1.0001 0 0 0 22 11.841797 L 22 4 A 1.0001 1.0001 0 0 0 21 3 L 15.154297 3 A 1.0001 1.0001 0 0 0 14.984375 2.9863281 A 1.0001 1.0001 0 0 0 14.839844 3 L 9.1542969 3 A 1.0001 1.0001 0 0 0 8.984375 2.9863281 z M 4 5 L 8 5 L 8 11 L 4 11 L 4 5 z M 10 5 L 14 5 L 14 11 L 10 11 L 10 5 z M 16 5 L 20 5 L 20 11 L 16 11 L 16 5 z M 4 13 L 8 13 L 8 19 L 4 19 L 4 13 z M 10 13 L 14 13 L 14 19 L 10 19 L 10 13 z M 16 13 L 20 13 L 20 19 L 16 19 L 16 13 z" fill="#c7ccd1" />
</svg>
